<svg xmlns="http://www.w3.org/2000/svg" xml:space="preserve" viewBox="0 0 512 512" id="management">
  <linearGradient id="a" x1="74.981" x2="437.019" y1="437.019" y2="74.981" gradientUnits="userSpaceOnUse">
    <stop offset="0" stop-color="#fcc60e"></stop>
    <stop offset="1" stop-color="#e92e29"></stop>
  </linearGradient>
  <path fill="url(#a)" d="m505.264 214.578-41.188-6.593c-5.31-23.125-14.375-44.991-27.008-65.143l24.479-33.81a8 8 0 0 0-.823-10.348l-47.408-47.408a8 8 0 0 0-10.348-.823l-33.81 24.479C349 62.299 327.135 53.233 304.015 47.924l-6.593-41.188a8 8 0 0 0-7.9-6.736h-67.045a8 8 0 0 0-7.899 6.736l-6.593 41.188c-23.125 5.31-44.99 14.375-65.143 27.008l-33.81-24.479a7.998 7.998 0 0 0-10.348.823L51.277 98.685a8 8 0 0 0-.823 10.348l24.479 33.81c-12.638 20.164-21.704 42.029-27.009 65.143l-41.188 6.593A7.998 7.998 0 0 0 0 222.478v67.045a8 8 0 0 0 6.736 7.899l41.188 6.593c5.31 23.125 14.375 44.991 27.008 65.143l-24.479 33.81a8 8 0 0 0 .823 10.348l47.408 47.408a8 8 0 0 0 10.348.823l33.81-24.479c20.164 12.638 42.029 21.703 65.143 27.009l6.593 41.188a8 8 0 0 0 7.899 6.736h67.045a8 8 0 0 0 7.899-6.736l6.593-41.188c23.125-5.31 44.991-14.375 65.143-27.008l33.81 24.479a8 8 0 0 0 10.348-.823l47.408-47.408a8 8 0 0 0 .823-10.348l-24.479-33.81c12.638-20.164 21.703-42.029 27.009-65.143l41.188-6.593a8 8 0 0 0 6.736-7.899v-67.045a8 8 0 0 0-6.736-7.901zM496 282.701l-39.853 6.379a7.998 7.998 0 0 0-6.576 6.312c-5.042 24.913-14.751 48.332-28.858 69.605a7.999 7.999 0 0 0 .188 9.113l23.686 32.714-37.761 37.761-32.715-23.685a7.997 7.997 0 0 0-9.113-.187c-21.259 14.101-44.678 23.81-69.605 28.857a8 8 0 0 0-6.312 6.576L282.701 496h-53.402l-6.379-39.853a7.998 7.998 0 0 0-6.312-6.576c-24.913-5.042-48.332-14.751-69.605-28.858a7.999 7.999 0 0 0-9.113.188l-32.714 23.686-37.761-37.761L91.1 374.111a7.999 7.999 0 0 0 .187-9.113c-14.101-21.259-23.81-44.678-28.857-69.605a8 8 0 0 0-6.576-6.312L16 282.701v-53.402l39.853-6.379a7.998 7.998 0 0 0 6.576-6.312c5.042-24.913 14.751-48.331 28.858-69.605a7.999 7.999 0 0 0-.188-9.113l-23.687-32.713 37.761-37.761L137.889 91.1a8 8 0 0 0 9.113.187c21.26-14.101 44.679-23.81 69.606-28.857a8.002 8.002 0 0 0 6.312-6.576L229.299 16h53.402l6.379 39.853a8 8 0 0 0 6.312 6.576c24.921 5.046 48.34 14.755 69.606 28.858a8 8 0 0 0 9.113-.188l32.714-23.686 37.761 37.761-23.686 32.715a7.999 7.999 0 0 0-.187 9.113c14.101 21.259 23.81 44.678 28.857 69.605a8 8 0 0 0 6.576 6.312l39.854 6.38v53.402zM256 90.466c-91.276 0-165.534 74.258-165.534 165.534S164.724 421.535 256 421.535 421.534 347.275 421.534 256c0-91.276-74.258-165.534-165.534-165.534zm0 315.068c-82.454 0-149.534-67.081-149.534-149.535 0-82.453 67.081-149.534 149.534-149.534S405.534 173.546 405.534 256c0 82.453-67.08 149.534-149.534 149.534zm99.679-80.086h-1.34V213.221a8 8 0 0 0-8-8h-24.45a8 8 0 0 0-8 8v112.228h-11.626v-63.481a8 8 0 0 0-8-8h-24.45a8 8 0 0 0-8 8v63.481h-11.626v-80.156a8 8 0 0 0-8-8h-24.45a8 8 0 0 0-8 8v80.156H198.11v-38.906a8 8 0 0 0-8-8h-24.449a8 8 0 0 0-8 8v38.906h-1.34a8 8 0 0 0 0 16h199.357a8 8 0 0 0 .001-16.001zm-25.79-104.227h8.45v104.227h-8.45V221.221zm-156.228 73.321h8.449v30.905h-8.449v-30.905zm104.151-24.575h8.45v55.481h-8.45v-55.481zm-52.075 55.481v-72.156h8.45v72.156h-8.45zm-47.851-70.558c10.88 0 19.731-8.851 19.731-19.731 0-1.559-.201-3.069-.544-4.524l23.369-17.745a19.602 19.602 0 0 0 9.519 2.459c5.165 0 9.858-2.011 13.379-5.271l18.978 8.161c.124 10.774 8.917 19.503 19.72 19.503 10.88 0 19.731-8.852 19.731-19.731a19.61 19.61 0 0 0-1.017-6.21l25.413-23.119a19.603 19.603 0 0 0 7.948 1.686c10.88 0 19.731-8.852 19.731-19.731 0-10.88-8.852-19.732-19.731-19.732s-19.731 8.852-19.731 19.732c0 2.171.366 4.255 1.017 6.211l-25.412 23.119a19.59 19.59 0 0 0-7.948-1.686c-5.165 0-9.858 2.011-13.379 5.27l-18.978-8.161c-.124-10.774-8.917-19.503-19.72-19.503-10.88 0-19.731 8.851-19.731 19.731 0 1.559.201 3.069.544 4.524l-23.37 17.745a19.602 19.602 0 0 0-9.519-2.459c-10.88 0-19.731 8.852-19.731 19.731s8.851 19.731 19.731 19.731zm156.227-87.986c2.058 0 3.731 1.674 3.731 3.732s-1.674 3.731-3.731 3.731-3.731-1.674-3.731-3.731 1.674-3.732 3.731-3.732zm-52.074 47.376c2.057 0 3.731 1.674 3.731 3.731s-1.674 3.731-3.731 3.731c-2.058 0-3.732-1.674-3.732-3.731s1.674-3.731 3.732-3.731zm-52.078-22.393a3.735 3.735 0 0 1 3.731 3.731 3.736 3.736 0 0 1-3.731 3.732 3.736 3.736 0 0 1-3.731-3.732 3.736 3.736 0 0 1 3.731-3.731zm-52.075 39.541a3.735 3.735 0 0 1 3.731 3.731c0 2.057-1.674 3.731-3.731 3.731s-3.731-1.674-3.731-3.731a3.734 3.734 0 0 1 3.731-3.731z"></path>
</svg>
